<?xml version="1.0" standalone="no"?>
<!DOCTYPE svg PUBLIC "-//W3C//DTD SVG 20010904//EN"
 "http://www.w3.org/TR/2001/REC-SVG-20010904/DTD/svg10.dtd">
<svg version="1.0" xmlns="http://www.w3.org/2000/svg"
 width="500.000000pt" height="205.000000pt" viewBox="0 0 500.000000 205.000000"
 preserveAspectRatio="xMidYMid meet">

<g transform="translate(0.000000,205.000000) scale(0.100000,-0.100000)"
fill="#000000" stroke="none">
<path d="M662 1360 c-41 -10 -39 -7 -47 -53 l-8 -39 29 15 c16 8 48 18 72 22
25 4 42 12 42 20 0 7 3 20 6 29 5 13 -1 16 -27 15 -19 -1 -49 -5 -67 -9z"/>
<path d="M1024 1354 c3 -9 6 -22 6 -30 0 -8 8 -14 18 -14 9 -1 41 -9 70 -19
l54 -19 -7 37 c-8 44 -5 41 -52 52 -62 14 -96 12 -89 -7z"/>
<path d="M1162 903 c-1 -7 -15 -28 -32 -46 -25 -29 -30 -43 -30 -88 0 -36 -6
-59 -17 -72 -17 -19 -17 -19 7 -12 78 24 84 36 78 160 -2 39 -5 65 -6 58z"/>
</g>
</svg>
